<svg width="100" height="100" viewBox="0 0 100 100" fill="none" xmlns="http://www.w3.org/2000/svg">
<path d="M50 0.000318128C91.175 5.61497e-05 100 8.825 100 50C100 91.175 91.175 100 50 100C8.825 100.001 -4.40901e-06 91.1756 -2.60918e-06 50.0006C-8.09353e-07 8.82564 8.825 0.000580107 50 0.000318128Z" fill="#1D1D1D"/>
<path d="M72.9617 54.7702C72.9612 54.7713 72.9596 54.7716 72.9587 54.7707L69.5711 51.4057C68.8084 50.6481 68.8082 49.4043 69.5707 48.6465L73.0005 45.2381C73.1861 45.0538 73.3341 44.8998 73.4633 44.7527C75.9158 42.0576 77.1656 38.5738 76.9824 34.9453C76.7991 31.3169 75.2064 27.9731 72.4954 25.5346C68.2951 21.7568 63.1551 19.0944 57.6321 17.8343C52.1092 16.5742 46.3161 16.7446 40.8778 18.3243C35.4394 19.9041 30.4662 22.8628 26.4984 26.881C22.5283 30.8992 19.6458 35.8927 18.1541 41.3296L18.1212 41.4626C16.8127 46.3278 16.6459 51.5104 17.6396 56.4479C18.6334 61.3854 20.7899 66.1083 23.8791 70.1008C26.9683 74.0933 31.0042 77.3811 35.5545 79.6049C40.0978 81.8263 45.1744 83 50.2369 83H50.2581C58.5859 82.9907 66.5426 79.8965 72.6622 74.2846C74.0083 73.0619 75.0725 71.6035 75.8219 69.9515C76.5713 68.2994 76.9659 66.5423 76.9965 64.7292C77.0317 62.8742 76.6958 61.0634 76.0004 59.3414C75.303 57.6224 74.2818 56.083 72.9648 54.7697C72.9638 54.7688 72.9623 54.769 72.9617 54.7702ZM55.6093 55.5275C55.6097 55.5273 55.6101 55.5278 55.6097 55.5281C54.1206 56.8757 52.1928 57.659 50.1876 57.7313C50.1195 57.7313 50.049 57.729 49.9785 57.7266C49.9057 57.7243 49.8329 57.722 49.7694 57.722H49.76C47.7045 57.6193 45.8111 56.7256 44.4297 55.2088C43.0484 53.6921 42.346 51.732 42.4494 49.6926C42.5715 47.7115 43.436 45.8681 44.8831 44.5007C46.3279 43.1357 48.2213 42.368 50.2158 42.3446L50.4366 42.3563C52.3347 42.3727 54.1319 43.103 55.492 44.4144L60.3579 49.2556C60.7872 49.6828 60.7869 50.3835 60.3572 50.8103L55.6089 55.5268C55.6085 55.5271 55.6089 55.5277 55.6093 55.5275ZM50.5752 37.3838H50.2111C46.9175 37.3908 43.7908 38.6392 41.4087 40.8979C39.0266 43.1567 37.6265 46.2018 37.4668 49.4663C37.4527 49.6833 37.4527 49.9003 37.4527 50.108C37.4621 53.4751 38.7917 56.6369 41.1949 59.01C43.5911 61.3761 46.7672 62.6782 50.15 62.6782C50.1617 62.6782 50.1711 62.6782 50.1829 62.6782C53.5187 62.5942 56.6948 61.2968 59.1286 59.0217L63.317 54.8596C64.0594 54.1219 65.2485 54.1217 65.991 54.8593L69.4321 58.2773C70.2731 59.115 70.9262 60.0974 71.3702 61.1964C71.8142 62.2955 72.0279 63.4529 72.0044 64.6382C71.988 65.777 71.739 66.8807 71.2692 67.9214C70.7993 68.9598 70.1321 69.8768 69.2864 70.6468C64.8066 74.728 59.0064 77.3018 52.9573 77.8898C46.9058 78.4778 40.7157 77.0731 35.524 73.93C30.3323 70.7892 26.2353 65.9683 23.9848 60.3587C21.7366 54.7492 21.3772 48.4489 22.9746 42.6247C24.6402 36.7327 28.258 31.4475 33.1631 27.742C38.0681 24.0366 44.1619 21.9855 50.3238 21.9668C52.4804 21.9668 54.6181 22.2118 56.7089 22.7018C61.3298 23.7915 65.6335 26.0363 69.1549 29.1981C69.2629 29.2961 69.3687 29.3941 69.472 29.4991C71.1188 31.1325 72.0279 33.3049 72.0303 35.6174C72.0326 37.9298 71.1282 40.1046 69.4838 41.7403L66.0051 45.199C65.2627 45.9372 64.0731 45.9373 63.3304 45.1994L59.1779 41.0729C56.8922 38.7652 53.8382 37.4538 50.5728 37.3838H50.5752Z" fill="white"/>
</svg>
